<svg width="73" height="73" viewBox="0 0 73 73" fill="none" xmlns="http://www.w3.org/2000/svg">
<path fill-rule="evenodd" clip-rule="evenodd" d="M36.5 72C56.1061 72 72 56.1061 72 36.5C72 16.8939 56.1061 1 36.5 1C16.8939 1 1 16.8939 1 36.5C1 56.1061 16.8939 72 36.5 72Z" stroke="white" stroke-width="2"/>
<path d="M37 32C41.4113 32 45 28.4113 45 24C45 19.5887 41.4113 16 37 16C32.5887 16 29 19.5887 29 24C29 28.4113 32.5887 32 37 32Z" fill="white"/>
<path d="M47.1771 35.7573C47.1737 35.7562 47.1672 35.7537 47.1638 35.7528C46.1279 35.4913 42.9557 35.0326 42.9557 35.0326C42.5976 34.9186 42.2149 35.1146 42.0861 35.4799L37.3112 49.0225C37.0358 49.8037 35.9669 49.8037 35.6915 49.0225L30.9166 35.4799C30.8126 35.1849 30.5433 35 30.2547 35C30.1863 35 26.9246 35.4728 25.8388 35.7519C22.8716 36.5145 21 39.5307 21 42.6739V53.9423C21 55.631 22.3244 57 23.958 57H49.042C50.6756 57 52 55.631 52 53.9423V42.6365C51.9999 39.5068 50.055 36.7294 47.1771 35.7573Z" fill="white"/>
<path d="M38.686 35.2956C38.4547 35.0989 38.1168 35 37.775 35H35.225C34.8831 35 34.545 35.099 34.314 35.2956C33.9561 35.6002 33.9041 36.0401 34.1582 36.3838L35.5214 37.9886L34.8833 42.1925L36.1399 44.8031C36.2624 45.0656 36.7378 45.0656 36.8604 44.8031L38.117 42.1925L37.4789 37.9886L38.8421 36.3838C39.0958 36.0401 39.0438 35.6002 38.686 35.2956Z" fill="white"/>
</svg>
