<svg width="76" height="76" viewBox="0 0 76 76" fill="none" xmlns="http://www.w3.org/2000/svg">
<g filter="url(#filter0_d)">
<path fill-rule="evenodd" clip-rule="evenodd" d="M37 67C19.8792 67 6 53.1208 6 36C6 18.8792 19.8792 5 37 5C54.1208 5 68 18.8792 68 36C68 53.1208 54.1208 67 37 67Z" fill="white"/>
</g>
<g opacity="0.5">
<path d="M43.7072 35.4048L31.7068 23.2835C31.3096 22.896 30.6765 22.9071 30.2928 23.3084C29.9185 23.6998 29.9185 24.3204 30.2928 24.7118L41.5861 36.1189L30.2928 47.526C29.9024 47.9204 29.9024 48.5598 30.2928 48.9542C30.6834 49.3486 31.3164 49.3486 31.7068 48.9542L43.7072 36.833C44.0976 36.4385 44.0976 35.7992 43.7072 35.4048Z" fill="#717171" stroke="#8C8C8C"/>
</g>
<defs>
<filter id="filter0_d" x="0" y="0" width="76" height="76" filterUnits="userSpaceOnUse" color-interpolation-filters="sRGB">
<feFlood flood-opacity="0" result="BackgroundImageFix"/>
<feColorMatrix in="SourceAlpha" type="matrix" values="0 0 0 0 0 0 0 0 0 0 0 0 0 0 0 0 0 0 127 0"/>
<feOffset dx="1" dy="2"/>
<feGaussianBlur stdDeviation="3.5"/>
<feColorMatrix type="matrix" values="0 0 0 0 0 0 0 0 0 0 0 0 0 0 0 0 0 0 0.07 0"/>
<feBlend mode="normal" in2="BackgroundImageFix" result="effect1_dropShadow"/>
<feBlend mode="normal" in="SourceGraphic" in2="effect1_dropShadow" result="shape"/>
</filter>
</defs>
</svg>
