<svg width="18" height="18" viewBox="0 0 18 18" fill="none" xmlns="http://www.w3.org/2000/svg">
<path fill-rule="evenodd" clip-rule="evenodd" d="M0 9C0 4.02942 4.02942 0 9 0C13.9706 0 18 4.02942 18 9C18 13.9706 13.9706 18 9 18C4.02942 18 0 13.9706 0 9ZM11.1887 4.58388L12.4335 4.58332H12.4337V2.39092L10.6197 2.38815C8.82525 2.38815 7.59609 3.48381 7.59609 5.49557V7.22909H5.56647V9.57968H7.59609V15.6118H10.024V9.57968H12.3505L12.3516 7.22909H10.0238V5.72833C10.0238 5.04773 10.2126 4.58388 11.1887 4.58388Z" fill="#FDFDFD"/>
</svg>
