<svg width="18" height="18" viewBox="0 0 18 18" fill="none" xmlns="http://www.w3.org/2000/svg">
<path d="M9.31756 6.18421C9.31756 4.93982 8.57571 3.00464 7.14544 3.00464C6.69581 3.00464 6.21403 3.22909 5.93742 3.57494C5.64391 3.93843 5.55869 4.4035 5.55869 4.85423C5.55869 6.01137 6.23056 7.92911 7.71428 7.92911C8.14499 7.92911 8.60913 7.72284 8.88648 7.44605C9.28303 7.04729 9.31756 6.49554 9.31756 6.18421Z" fill="white"/>
<path d="M8.38598 10.7292C8.24859 10.7119 8.16227 10.7119 7.98998 10.7119C7.83441 10.7119 6.903 10.7459 6.17914 10.9894C5.80004 11.1268 4.69672 11.5419 4.69672 12.7687C4.69672 13.996 5.88655 14.8782 7.73137 14.8782C9.38719 14.8782 10.2668 14.0814 10.2668 13.0115C10.2666 12.1275 9.69759 11.6626 8.38598 10.7292Z" fill="white"/>
<path fill-rule="evenodd" clip-rule="evenodd" d="M8.97704 0C4.01914 0 0 4.01914 0 8.97704C0 13.9349 4.01914 17.9541 8.97704 17.9541C13.9349 17.9541 17.9541 13.9349 17.9541 8.97704C17.9541 4.01914 13.9349 0 8.97704 0ZM6.88573 15.6021C4.38484 15.6021 3.17847 14.4105 3.17847 13.1308C3.17847 12.5091 3.48833 11.6284 4.50588 11.0232C5.55045 10.3811 6.95885 10.2847 7.74685 10.2308H7.74685L7.80025 10.2271L7.76975 10.1881C7.5355 9.88858 7.28302 9.56576 7.28302 9.05253C7.28302 8.78917 7.35261 8.62278 7.42851 8.44132L7.45457 8.37863C7.26465 8.39627 7.07584 8.41316 6.90318 8.41316C5.076 8.41316 4.04137 7.047 4.04137 5.69939C4.04137 4.90555 4.40302 4.02355 5.14433 3.38418C6.12771 2.57198 7.47147 2.35157 8.40343 2.35157H11.801L10.6797 3.05614H9.61145C10.0078 3.38418 10.8343 4.07535 10.8343 5.38935C10.8343 6.66716 10.111 7.27365 9.38718 7.84322L9.36031 7.87C9.14243 8.0869 8.90376 8.32449 8.90376 8.69014C8.90376 9.06222 9.15298 9.26867 9.34106 9.42447L9.35192 9.43347L9.97329 9.91616C10.7322 10.5552 11.4221 11.1429 11.4217 12.3364C11.4216 13.9614 9.85133 15.6021 6.88573 15.6021ZM14.3274 10.5041V8.76582H16.061V7.9031H14.3274V6.17547H13.4741V7.9031H11.7489V8.76582H13.4741V10.5041H14.3274Z" fill="white"/>
</svg>
