<svg width="14" height="11" viewBox="0 0 14 11" fill="none" xmlns="http://www.w3.org/2000/svg">
<path d="M13.8939 0.796638C11.9192 2.3183 8.45405 4.99536 7.43561 5.83007C7.29889 5.94272 7.15225 6 7.00001 6C6.84809 6 6.7017 5.94326 6.56529 5.83114C5.54598 4.99561 2.08087 2.3183 0.106069 0.796638C-0.01688 0.702083 -0.0356255 0.535882 0.0639143 0.420283C0.294019 0.15316 0.637096 0 1.00479 0H12.9952C13.3629 0 13.706 0.15316 13.9361 0.420309C14.0356 0.535882 14.0169 0.702083 13.8939 0.796638Z" fill="#DD2626"/>
<path d="M0.169176 3.02474C0.272563 2.98096 0.394188 2.99623 0.480211 3.0631C2.61106 4.70649 5.33061 6.81298 6.18625 7.51443C6.66649 7.90882 7.33299 7.90882 7.81435 7.5139C8.72638 6.76632 11.7803 4.40434 13.5198 3.06307C13.6064 2.9962 13.7283 2.98145 13.8308 3.02471C13.9339 3.06827 14 3.16208 14 3.26547V9.93859C14 10.524 13.4768 11 12.8333 11H1.16665C0.523223 11 0 10.524 0 9.93859V3.26547C0 3.16208 0.0660906 3.06802 0.169176 3.02474Z" fill="#DD2626"/>
</svg>
