<svg width="18" height="18" viewBox="0 0 18 18" fill="none" xmlns="http://www.w3.org/2000/svg">
<path d="M10.7522 9.03978C10.7522 9.98553 9.98556 10.7522 9.03981 10.7522C8.09407 10.7522 7.32742 9.98553 7.32742 9.03978C7.32742 8.09404 8.09407 7.32739 9.03981 7.32739C9.98556 7.32739 10.7522 8.09404 10.7522 9.03978Z" fill="white"/>
<path fill-rule="evenodd" clip-rule="evenodd" d="M13.0139 5.9633C12.9314 5.73973 12.7998 5.53736 12.6288 5.37126C12.4627 5.20023 12.2604 5.0686 12.0367 4.9861C11.8553 4.91563 11.5828 4.83176 11.0807 4.80891C10.5377 4.78414 10.3749 4.77881 9.00005 4.77881C7.62511 4.77881 7.46229 4.78401 6.91937 4.80877C6.41736 4.83176 6.14467 4.91563 5.96337 4.9861C5.73967 5.0686 5.5373 5.20023 5.37133 5.37126C5.2003 5.53736 5.06868 5.73959 4.98604 5.9633C4.91557 6.14473 4.8317 6.41742 4.80885 6.91943C4.78408 7.46235 4.77875 7.62517 4.77875 9.00012C4.77875 10.3749 4.78408 10.5377 4.80885 11.0808C4.8317 11.5828 4.91557 11.8554 4.98604 12.0368C5.06868 12.2605 5.20017 12.4627 5.3712 12.6288C5.5373 12.7999 5.73953 12.9315 5.96324 13.014C6.14467 13.0846 6.41736 13.1685 6.91937 13.1913C7.46229 13.2161 7.62497 13.2213 8.99992 13.2213C10.375 13.2213 10.5378 13.2161 11.0806 13.1913C11.5826 13.1685 11.8553 13.0846 12.0367 13.014C12.4858 12.8408 12.8407 12.4859 13.0139 12.0368C13.0844 11.8554 13.1683 11.5828 13.1913 11.0808C13.216 10.5377 13.2212 10.3749 13.2212 9.00012C13.2212 7.62517 13.216 7.46235 13.1913 6.91943C13.1684 6.41742 13.0845 6.14473 13.0139 5.9633ZM9.00005 11.644C7.53973 11.644 6.35592 10.4603 6.35592 8.99998C6.35592 7.53965 7.53973 6.35598 9.00005 6.35598C10.4602 6.35598 11.6441 7.53965 11.6441 8.99998C11.6441 10.4603 10.4602 11.644 9.00005 11.644ZM11.1307 6.25145C11.1307 6.59269 11.4073 6.86935 11.7486 6.86935C12.0898 6.86935 12.3663 6.59269 12.3665 6.25145C12.3665 5.91021 12.0898 5.63355 11.7486 5.63355C11.4073 5.63355 11.1307 5.91021 11.1307 6.25145Z" fill="white"/>
<path fill-rule="evenodd" clip-rule="evenodd" d="M0 9C0 4.0302 4.0302 0 9 0C13.9698 0 18 4.0302 18 9C18 13.9698 13.9698 18 9 18C4.0302 18 0 13.9698 0 9ZM13.8966 12.3852C14.0243 12.0564 14.1118 11.6808 14.1368 11.1307C14.1621 10.5796 14.168 10.4035 14.168 9C14.168 7.5965 14.1621 7.42044 14.1369 6.86934C14.1118 6.3192 14.0245 5.9436 13.8966 5.61484C13.767 5.27 13.5634 4.95772 13.3006 4.69954C13.0424 4.43655 12.73 4.23303 12.3852 4.10326C12.0564 3.97568 11.6808 3.88834 11.1307 3.86334C10.5796 3.83807 10.4035 3.83203 9 3.83203C7.5965 3.83203 7.42044 3.83807 6.86934 3.8632C6.3192 3.88834 5.9436 3.97568 5.61484 4.10339C5.27 4.23317 4.95758 4.43655 4.69954 4.69954C4.43655 4.95758 4.23303 5.27 4.10326 5.61484C3.97554 5.9436 3.8882 6.3192 3.8632 6.86934C3.83794 7.42044 3.83203 7.5965 3.83203 9C3.83203 10.4035 3.83794 10.5796 3.86334 11.1308C3.88834 11.6808 3.97581 12.0565 4.10353 12.3852C4.23331 12.73 4.43669 13.0424 4.69954 13.3005C4.95772 13.5634 5.27 13.7668 5.61497 13.8966C5.9436 14.0243 6.31934 14.1117 6.86934 14.1368C7.42058 14.1619 7.5965 14.168 9.00014 14.168C10.4036 14.168 10.5797 14.1619 11.1308 14.1368C11.6808 14.1117 12.0565 14.0243 12.3852 13.8966C13.0794 13.6281 13.6281 13.0794 13.8966 12.3852Z" fill="white"/>
</svg>
