<svg width="16" height="13" viewBox="0 0 16 13" fill="none" xmlns="http://www.w3.org/2000/svg">
<path d="M15.8788 0.980478C13.6219 2.85329 9.66177 6.14813 8.49783 7.17547C8.34158 7.31412 8.174 7.38462 8.00002 7.38462C7.82639 7.38462 7.65909 7.31478 7.50319 7.17679C6.33827 6.14844 2.37814 2.85329 0.121222 0.980478C-0.0192909 0.864102 -0.0407143 0.659547 0.0730448 0.517272C0.336021 0.188505 0.728109 0 1.14833 0H14.8517C15.2719 0 15.664 0.188505 15.927 0.517303C16.0407 0.659547 16.0193 0.864102 15.8788 0.980478Z" fill="white"/>
<path d="M0.193344 2.49198C0.311501 2.43809 0.4505 2.45689 0.548813 2.53919C2.98406 4.56183 6.09212 7.15444 7.07 8.01775C7.61884 8.50316 8.38056 8.50316 8.93069 8.01711C9.973 7.097 13.4633 4.18995 15.4512 2.53916C15.5502 2.45686 15.6895 2.43871 15.8067 2.49195C15.9245 2.54556 16 2.66102 16 2.78826V11.0013C16 11.7218 15.402 12.3077 14.6667 12.3077H1.33331C0.597968 12.3077 0 11.7218 0 11.0013V2.78826C0 2.66102 0.075532 2.54525 0.193344 2.49198Z" fill="white"/>
</svg>
