<svg width="73" height="73" viewBox="0 0 73 73" fill="none" xmlns="http://www.w3.org/2000/svg">
<path fill-rule="evenodd" clip-rule="evenodd" d="M36.5 72C56.1061 72 72 56.1061 72 36.5C72 16.8939 56.1061 1 36.5 1C16.8939 1 1 16.8939 1 36.5C1 56.1061 16.8939 72 36.5 72Z" stroke="white" stroke-width="2"/>
<path fill-rule="evenodd" clip-rule="evenodd" d="M27.844 43.0471L29.8795 46.3684L33.7295 45.9011L37 48L40.2705 45.9011L44.1206 46.3685L46.1561 43.0472L49.8294 41.7875L50.2364 37.908L53 35.1723L51.686 31.5L53 27.8277L50.2363 25.0919L49.8294 21.2125L46.156 19.9528L44.1205 16.6315L40.2705 17.099L37 15L33.7295 17.0988L29.8794 16.6314L27.8439 19.9527L24.1706 21.2124L23.7636 25.0918L21 27.8276L22.314 31.4999L21 35.1721L23.7637 37.9079L24.1707 41.7874L27.844 43.0471ZM37 20.1853C43.2045 20.1853 48.2524 25.2611 48.2524 31.5C48.2524 37.7389 43.2045 42.8147 37 42.8147C30.7955 42.8147 25.7476 37.7389 25.7476 31.5C25.7476 25.2611 30.7955 20.1853 37 20.1853Z" fill="white"/>
<path d="M37 22C41.9626 22 46 26.0374 46 31C46 35.9626 41.9626 40 37 40C32.0374 40 28 35.9626 28 31C28 26.0374 32.0374 22 37 22Z" fill="white"/>
<path d="M40.8886 48.4725L45.3641 48.9979L47.7288 45.2665L48.5326 45L52 55.5386L45.7577 55.2048L40.8739 59L38 50.2652L40.8886 48.4725Z" fill="white"/>
<path d="M26.2712 45.2666L28.636 48.9979L33.1114 48.4725L36 50.2652L33.1261 59L28.2423 55.2048L22 55.5386L25.4674 45L26.2712 45.2666Z" fill="white"/>
</svg>
