<svg width="90" height="90" viewBox="0 0 90 90" fill="none" xmlns="http://www.w3.org/2000/svg">
<path opacity="0.199265" fill-rule="evenodd" clip-rule="evenodd" d="M45 84C66.5391 84 84 66.5391 84 45C84 23.4609 66.5391 6 45 6C23.4609 6 6 23.4609 6 45C6 66.5391 23.4609 84 45 84Z" fill="#008FE5"/>
<path opacity="0.105097" fill-rule="evenodd" clip-rule="evenodd" d="M45 90C69.8528 90 90 69.8528 90 45C90 20.1472 69.8528 0 45 0C20.1472 0 0 20.1472 0 45C0 69.8528 20.1472 90 45 90Z" fill="#008FE5"/>
<g filter="url(#filter0_d)">
<path fill-rule="evenodd" clip-rule="evenodd" d="M26.3643 65.231C19.4329 60.0536 15 52.1261 15 43.2405C15 27.6422 28.6569 15 45.5013 15C62.3456 15 76.0025 27.6448 76 43.243C76 58.8412 62.3431 71.4835 45.4987 71.4835C42.4562 71.4835 39.5205 71.0666 36.7499 70.3016L26.3643 76V65.231ZM50.2391 43.6141L42.2834 35.3308L25.6068 53.0284L40.7634 44.7451L48.5285 53.0259L65.2026 35.3308L50.2391 43.6141Z" fill="#2196F3"/>
<path fill-rule="evenodd" clip-rule="evenodd" d="M25.6068 53.0284L42.2834 35.3308L50.2391 43.6141L65.2025 35.3308L48.5285 53.0284L40.7634 44.7451L25.6068 53.0284Z" fill="white"/>
</g>
<defs>
<filter id="filter0_d" x="11" y="13" width="69" height="69" filterUnits="userSpaceOnUse" color-interpolation-filters="sRGB">
<feFlood flood-opacity="0" result="BackgroundImageFix"/>
<feColorMatrix in="SourceAlpha" type="matrix" values="0 0 0 0 0 0 0 0 0 0 0 0 0 0 0 0 0 0 127 0"/>
<feOffset dy="2"/>
<feGaussianBlur stdDeviation="2"/>
<feColorMatrix type="matrix" values="0 0 0 0 0 0 0 0 0 0 0 0 0 0 0 0 0 0 0.0815669 0"/>
<feBlend mode="normal" in2="BackgroundImageFix" result="effect1_dropShadow"/>
<feBlend mode="normal" in="SourceGraphic" in2="effect1_dropShadow" result="shape"/>
</filter>
</defs>
</svg>
