<svg width="25" height="18" viewBox="0 0 25 18" fill="none" xmlns="http://www.w3.org/2000/svg">
<path d="M1.79766 0H10.7023C11.204 0 11.629 0.175642 11.9774 0.526932C12.3258 0.878222 12.5 1.30679 12.5 1.81265C12.5 2.2904 12.3258 2.70492 11.9774 3.05621C11.629 3.4075 11.204 3.58314 10.7023 3.58314H1.79766C1.29598 3.58314 0.87096 3.4075 0.522575 3.05621C0.17419 2.70492 0 2.2904 0 1.81265C0 1.30679 0.17419 0.878222 0.522575 0.526932C0.87096 0.175642 1.29598 0 1.79766 0ZM14.2977 14.3747H23.2023C23.704 14.3747 24.129 14.5504 24.4774 14.9016C24.8258 15.2529 25 15.6815 25 16.1874C25 16.6932 24.8258 17.1218 24.4774 17.4731C24.129 17.8244 23.704 18 23.2023 18H14.2977C13.796 18 13.371 17.8244 13.0226 17.4731C12.6742 17.1218 12.5 16.6932 12.5 16.1874C12.5 15.6815 12.6742 15.2529 13.0226 14.9016C13.371 14.5504 13.796 14.3747 14.2977 14.3747ZM1.79766 7.20843H23.2023C23.704 7.20843 24.129 7.38407 24.4774 7.73536C24.8258 8.08665 25 8.50117 25 8.97892C25 9.48478 24.8258 9.91335 24.4774 10.2646C24.129 10.6159 23.704 10.7916 23.2023 10.7916H1.79766C1.29598 10.7916 0.87096 10.6159 0.522575 10.2646C0.17419 9.91335 0 9.48478 0 8.97892C0 8.50117 0.17419 8.08665 0.522575 7.73536C0.87096 7.38407 1.29598 7.20843 1.79766 7.20843Z" fill="#454545"/>
</svg>
