<svg width="73" height="73" viewBox="0 0 73 73" fill="none" xmlns="http://www.w3.org/2000/svg">
<path fill-rule="evenodd" clip-rule="evenodd" d="M36.5 72C56.1061 72 72 56.1061 72 36.5C72 16.8939 56.1061 1 36.5 1C16.8939 1 1 16.8939 1 36.5C1 56.1061 16.8939 72 36.5 72Z" stroke="white" stroke-width="2"/>
<path d="M38.8643 44.3595C38.0701 44.8492 37.053 45.119 36.0003 45.119C34.9477 45.119 33.9306 44.8493 33.1364 44.3595L20.1703 36.3647C20.1703 36.3647 19 35.6435 19 37.2773C19 39.1326 19 44.6984 19 44.6984C19 44.7727 19 45.1452 19 45.2607C19 49.4662 26.6112 54 36 54C45.3888 54 53 49.4663 53 45.2607C53 45.1452 53 44.7727 53 44.6984C53 44.6984 53 38.795 53 36.8271C53 35.5157 52.168 36.1565 52.168 36.1565L38.8643 44.3595Z" fill="white"/>
<path d="M58.2464 29.4926C59.2512 28.8848 59.2512 27.8901 58.2464 27.2821L38.3268 17.4559C37.322 16.848 35.6779 16.848 34.6731 17.4559L14.7536 27.2821C13.7488 27.89 13.7488 28.8847 14.7536 29.4926L34.6731 41.5441C35.6779 42.152 37.322 42.152 38.3268 41.5441" fill="white"/>
<path d="M57.5282 47.2621C57.5282 43.8168 57.5282 33.4809 57.5282 33.4809C57.5282 33.4809 57.5382 32.8281 57.1315 33.0437C56.8053 33.2166 56.0055 33.6411 55.7238 33.8745C55.3985 34.1437 55.4718 34.7481 55.4718 34.7481C55.4718 34.7481 55.4718 44.1336 55.4718 47.2621C55.4718 47.4398 55.3115 47.5246 55.2351 47.5674C54.4966 47.9809 54 48.7441 54 49.6191C54 50.934 55.1192 52 56.5001 52C57.8808 52 59 50.934 59 49.6191C59 48.7408 58.4998 47.9751 57.7566 47.5627C57.6827 47.5217 57.5282 47.4397 57.5282 47.2621Z" fill="white"/>
</svg>
