<svg width="18" height="18" viewBox="0 0 18 18" fill="none" xmlns="http://www.w3.org/2000/svg">
<path fill-rule="evenodd" clip-rule="evenodd" d="M12.2544 11.3118L16.9023 15.9596C17.0325 16.0898 17.0325 16.3008 16.9023 16.431L16.4311 16.9023C16.3008 17.0325 16.0898 17.0325 15.9596 16.9023L11.3118 12.2545C10.2234 13.136 8.83978 13.6667 7.33334 13.6667C3.84116 13.6667 1 10.8255 1 7.33334C1 3.84116 3.84113 1 7.33331 1C10.8255 1 13.6667 3.84116 13.6667 7.33334C13.6667 8.83978 13.136 10.2234 12.2544 11.3118ZM2.33334 7.33334C2.33334 10.0905 4.57619 12.3333 7.33334 12.3333C10.0905 12.3333 12.3333 10.0905 12.3333 7.33334C12.3333 4.57619 10.0905 2.33334 7.33334 2.33334C4.57619 2.33334 2.33334 4.57619 2.33334 7.33334Z" fill="white"/>
<path d="M16.9023 15.9596L16.7255 16.1364L16.7256 16.1364L16.9023 15.9596ZM12.2544 11.3118L12.0602 11.1544L11.9185 11.3293L12.0777 11.4885L12.2544 11.3118ZM16.9023 16.431L17.0791 16.6078L17.0791 16.6078L16.9023 16.431ZM16.4311 16.9023L16.6078 17.0792L16.6078 17.0791L16.4311 16.9023ZM15.9596 16.9023L15.7828 17.0791L15.7829 17.0792L15.9596 16.9023ZM11.3118 12.2545L11.4885 12.0777L11.3293 11.9185L11.1544 12.0602L11.3118 12.2545ZM17.0791 15.7828L12.4312 11.135L12.0777 11.4885L16.7255 16.1364L17.0791 15.7828ZM17.0791 16.6078C17.3069 16.38 17.3069 16.0106 17.0791 15.7828L16.7256 16.1364C16.7581 16.1689 16.7581 16.2217 16.7255 16.2543L17.0791 16.6078ZM16.6078 17.0791L17.0791 16.6078L16.7256 16.2543L16.2543 16.7256L16.6078 17.0791ZM15.7829 17.0792C16.0107 17.3069 16.38 17.3069 16.6078 17.0792L16.2543 16.7255C16.2217 16.7581 16.169 16.7581 16.1364 16.7255L15.7829 17.0792ZM11.135 12.4312L15.7828 17.0791L16.1364 16.7256L11.4885 12.0777L11.135 12.4312ZM7.33334 13.9167C8.8996 13.9167 10.3383 13.3647 11.4691 12.4487L11.1544 12.0602C10.1086 12.9073 8.77996 13.4167 7.33334 13.4167V13.9167ZM0.75 7.33334C0.75 10.9636 3.70309 13.9167 7.33334 13.9167V13.4167C3.97923 13.4167 1.25 10.6875 1.25 7.33334H0.75ZM7.33331 0.75C3.70305 0.75 0.75 3.70309 0.75 7.33334H1.25C1.25 3.97923 3.9792 1.25 7.33331 1.25V0.75ZM13.9167 7.33334C13.9167 3.70309 10.9636 0.75 7.33331 0.75V1.25C10.6874 1.25 13.4167 3.97923 13.4167 7.33334H13.9167ZM12.4487 11.4691C13.3647 10.3383 13.9167 8.8996 13.9167 7.33334H13.4167C13.4167 8.77997 12.9073 10.1086 12.0602 11.1544L12.4487 11.4691ZM7.33334 12.0833C4.71426 12.0833 2.58334 9.95243 2.58334 7.33334H2.08334C2.08334 10.2286 4.43812 12.5833 7.33334 12.5833V12.0833ZM12.0833 7.33334C12.0833 9.95243 9.95243 12.0833 7.33334 12.0833V12.5833C10.2286 12.5833 12.5833 10.2286 12.5833 7.33334H12.0833ZM7.33334 2.58334C9.95243 2.58334 12.0833 4.71426 12.0833 7.33334H12.5833C12.5833 4.43812 10.2286 2.08334 7.33334 2.08334V2.58334ZM2.58334 7.33334C2.58334 4.71426 4.71426 2.58334 7.33334 2.58334V2.08334C4.43812 2.08334 2.08334 4.43812 2.08334 7.33334H2.58334Z" fill="white"/>
</svg>
