<svg width="73" height="73" viewBox="0 0 73 73" fill="none" xmlns="http://www.w3.org/2000/svg">
<path fill-rule="evenodd" clip-rule="evenodd" d="M36.5 72C56.1061 72 72 56.1061 72 36.5C72 16.8939 56.1061 1 36.5 1C16.8939 1 1 16.8939 1 36.5C1 56.1061 16.8939 72 36.5 72Z" stroke="white" stroke-width="2"/>
<path d="M52.1396 38H49C49.32 38.8847 49.4949 39.8395 49.4949 40.8346V52.8165C49.4949 53.2314 49.4233 53.6296 49.2932 54H54.4837C56.4227 54 58 52.4072 58 50.4494V43.9176C58.0001 40.6547 55.3711 38 52.1396 38Z" fill="white"/>
<path d="M24.5051 40.8346C24.5051 39.8394 24.68 38.8847 25 38H21.8604C18.629 38 16 40.6546 16 43.9176V50.4494C16 52.4072 17.5773 54 19.5162 54H24.7068C24.5767 53.6295 24.5051 53.2313 24.5051 52.8164V40.8346Z" fill="white"/>
<path d="M40.798 35H33.202C29.7822 35 27 37.6431 27 40.8919V52.8216C27 53.4724 27.5553 54 28.2404 54H45.7596C46.4447 54 47 53.4724 47 52.8216V40.8919C47 37.6431 44.2178 35 40.798 35Z" fill="white"/>
<path d="M37.5 20C33.3645 20 30 22.9159 30 26.5C30 28.9311 31.5482 31.0544 33.8347 32.1691C34.9192 32.6978 36.1695 33 37.5 33C38.8305 33 40.0808 32.6978 41.1653 32.1691C43.4518 31.0544 45 28.9311 45 26.5C45 22.9159 41.6355 20 37.5 20Z" fill="white"/>
<path d="M24.5 27C21.4672 27 19 29.2429 19 32C19 34.7571 21.4672 37 24.5 37C25.2693 37 26.0019 36.8551 26.6673 36.5947C27.8179 36.1444 28.7665 35.3473 29.3536 34.3488C29.7656 33.648 30 32.8485 30 32C30 29.243 27.5328 27 24.5 27Z" fill="white"/>
<path d="M50.5 27C47.4672 27 45 29.2429 45 32C45 32.8486 45.2344 33.6481 45.6464 34.3488C46.2335 35.3473 47.1821 36.1445 48.3327 36.5947C48.9981 36.8551 49.7307 37 50.5 37C53.5328 37 56 34.7571 56 32C56 29.2429 53.5328 27 50.5 27Z" fill="white"/>
</svg>
