<svg width="18" height="18" viewBox="0 0 18 18" fill="none" xmlns="http://www.w3.org/2000/svg">
<path d="M8 11L11 9.5L8 8L8 11Z" fill="white"/>
<path fill-rule="evenodd" clip-rule="evenodd" d="M0 9C0 4.0302 4.0302 0 9 0C13.9698 0 18 4.0302 18 9C18 13.9698 13.9698 18 9 18C4.0302 18 0 13.9698 0 9ZM14.3921 11.7146C14.6236 10.8344 14.6236 9.0092 14.6236 9.0092C14.6236 9.0092 14.633 7.1749 14.3921 6.29475C14.2623 5.813 13.8825 5.43301 13.4007 5.30338C12.5206 5.0625 9 5.0625 9 5.0625C9 5.0625 5.47943 5.0625 4.59929 5.29417C4.12674 5.42381 3.73755 5.813 3.60791 6.29475C3.37624 7.1749 3.37624 9 3.37624 9C3.37624 9 3.37624 10.8344 3.60791 11.7052C3.73769 12.187 4.11754 12.567 4.59929 12.6966C5.48863 12.9375 9 12.9375 9 12.9375C9 12.9375 12.5206 12.9375 13.4007 12.7058C13.8825 12.5762 14.2623 12.1963 14.3921 11.7146Z" fill="white"/>
</svg>
